<svg id="Layer_1" data-name="Layer 1" xmlns="http://www.w3.org/2000/svg" viewBox="0 0 604.9 105.6"><title>coveralls_logob</title><path d="M65.4,33.9a22.23,22.23,0,0,0-5.1-4.4,13.14,13.14,0,0,0-6.8-1.6,16.64,16.64,0,0,0-9.3,2.6,24.41,24.41,0,0,0-6.5,6.7A34,34,0,0,0,33.5,46a57.57,57.57,0,0,0-2.2,8.9c-0.2,1.4-.3,2.7-0.5,4.1s-0.2,2.7-.2,4.2a32,32,0,0,0,.7,7,17.8,17.8,0,0,0,2.2,6,10.61,10.61,0,0,0,4.2,4.2A13.54,13.54,0,0,0,44.4,82a18.73,18.73,0,0,0,8.2-1.7A38.33,38.33,0,0,0,60,75.5L54,104a45.23,45.23,0,0,1-8.6,2.8,40.73,40.73,0,0,1-8.7.9,37.76,37.76,0,0,1-13.6-2.4,30.29,30.29,0,0,1-11-7.3A34.09,34.09,0,0,1,4.8,85.7,49.69,49.69,0,0,1,2.1,68.5c0-2.1.1-4.1,0.3-6.2s0.4-4.3.8-6.6A78.81,78.81,0,0,1,8.7,35.9a70,70,0,0,1,8.4-14.4,48.65,48.65,0,0,1,10.2-9.7A53.8,53.8,0,0,1,38,6,46.36,46.36,0,0,1,48,3.1a54.87,54.87,0,0,1,8.1-.8,58.07,58.07,0,0,1,7.2.5,29.44,29.44,0,0,1,6.6,1.9Z" transform="translate(-2.1 -2.1)" style="fill:#354a57"/><path d="M68.1,55a94.78,94.78,0,0,1,5.1-18.7,64.14,64.14,0,0,1,9.5-17A49.86,49.86,0,0,1,96.7,7a35.73,35.73,0,0,1,18.6-4.7q8.7,0,14.7,3.3a29,29,0,0,1,9.9,8.8,39.06,39.06,0,0,1,5.5,12.8,66.73,66.73,0,0,1,1.7,14.9c0,2.2-.1,4.3-0.3,6.5s-0.5,4.3-.8,6.3a93,93,0,0,1-5.1,18.7,64.14,64.14,0,0,1-9.5,17,49.86,49.86,0,0,1-14,12.3,35.73,35.73,0,0,1-18.6,4.7c-5.9,0-10.8-1.1-14.8-3.3a28.34,28.34,0,0,1-9.7-8.8,36.93,36.93,0,0,1-5.4-12.8,67.18,67.18,0,0,1-1.7-15.1c0-2.1.1-4.2,0.2-6.3S67.8,57.1,68.1,55Zm28.1,0c-0.2,1.3-.4,3-0.7,5.3a54.83,54.83,0,0,0-.4,7.2,45.78,45.78,0,0,0,.3,5.3,16.18,16.18,0,0,0,1.2,4.7A8.32,8.32,0,0,0,99,80.8a5.32,5.32,0,0,0,3.8,1.3,7.43,7.43,0,0,0,4.7-1.6,13.14,13.14,0,0,0,3.6-4.1,40.18,40.18,0,0,0,2.7-5.5c0.8-2,1.4-4,2-6s1-3.8,1.3-5.6,0.6-3.2.7-4.3c0.2-1.3.4-3,.7-5.3a55.49,55.49,0,0,0,.5-7.2,45.78,45.78,0,0,0-.3-5.3,16.35,16.35,0,0,0-1.2-4.6,8.32,8.32,0,0,0-2.4-3.3,5.49,5.49,0,0,0-3.8-1.3,7.43,7.43,0,0,0-4.7,1.6,13.14,13.14,0,0,0-3.6,4.1,40.18,40.18,0,0,0-2.7,5.5c-0.8,2-1.4,4-2,6s-1,3.8-1.4,5.6S96.4,53.9,96.2,55Z" transform="translate(-2.1 -2.1)" style="fill:#354a57"/><path d="M157.9,105.9L150.3,4.1h28.9V46c-0.1,4.1-.2,8.2-0.4,12.3s-0.4,8.2-.5,12.3h0.3c1.3-4.1,2.4-8.2,3.4-12.3s2.2-8.1,3.6-12.3l14-41.9h29.9L186,105.9H157.9Z" transform="translate(-2.1 -2.1)" style="fill:#354a57"/><path d="M233.3,4.1h51.2l-3.6,24H257.3L255,42.3h21.2l-3.8,24H251.2l-2.4,15.5h23.6l-3.6,24H217.6Z" transform="translate(-2.1 -2.1)" style="fill:#354a57"/><path d="M317.9,105.9l-8.6-42.4-0.4.3c-0.3,2.5-.5,5-0.8,7.5s-0.6,5-1.1,7.5l-4.2,27.1H275.2L291.1,4.1h26.6a84.12,84.12,0,0,1,14.7,1.2A34.5,34.5,0,0,1,344,9.4a20.61,20.61,0,0,1,7.6,7.9c1.8,3.3,2.7,7.6,2.7,12.7,0,1.3-.1,2.5-0.2,3.8s-0.3,2.7-.5,4.1a37.78,37.78,0,0,1-6.1,15.4,27.1,27.1,0,0,1-13.6,10.1l13.9,42.4-29.9.1h0Zm-4.8-54.7a11.81,11.81,0,0,0,5-1.1,12.84,12.84,0,0,0,4-2.9,18.09,18.09,0,0,0,2.8-4.2,22.14,22.14,0,0,0,1.5-4.8,7.72,7.72,0,0,0,.2-1.5c0-.4.1-0.9,0.1-1.4,0-3.2-.9-5.6-2.8-7.2a11.39,11.39,0,0,0-7.5-2.3h-1.1l-3.9,25.1Z" transform="translate(-2.1 -2.1)" style="fill:#354a57"/><path d="M399.9,105.9V92.8H381.4l-4.3,13.1H348.7L388.9,4.1h33.6l5.8,101.8H399.9ZM400,71.2l0.7-23.6c0.1-3.2.2-6.3,0.4-9.6s0.4-6.4.5-9.6h-0.3c-0.9,3.2-1.8,6.3-2.7,9.6s-1.8,6.4-2.8,9.6l-7.4,23.6H400Z" transform="translate(-2.1 -2.1)" style="fill:#354a57"/><path d="M433.3,105.9L449.1,4.1h27.6L464.5,81.9h20.7l-3.6,24H433.3Z" transform="translate(-2.1 -2.1)" style="fill:#354a57"/><path d="M486.8,105.9L502.6,4.1h27.6L518,81.9h20.7l-3.6,24H486.8Z" transform="translate(-2.1 -2.1)" style="fill:#354a57"/><path d="M547,71.6a24.73,24.73,0,0,0,2.7,4.2,20.44,20.44,0,0,0,3.6,3.6,21.43,21.43,0,0,0,4.3,2.6,13.48,13.48,0,0,0,5,.9,11.37,11.37,0,0,0,5.7-1.7,7.5,7.5,0,0,0,3.5-6.6,6.76,6.76,0,0,0-1.5-4.2,10.61,10.61,0,0,0-1.7-2c-0.7-.6-1.4-1.3-2.2-1.9-2.3-2.1-4.5-4.1-6.6-6.2a33.58,33.58,0,0,1-5.1-6.8,22.66,22.66,0,0,1-2.3-5.8,28.82,28.82,0,0,1-.8-6.8,34,34,0,0,1,.4-5.3,43.21,43.21,0,0,1,3.1-10.3,40.48,40.48,0,0,1,6.8-10.9,39.46,39.46,0,0,1,10.9-8.7,31.45,31.45,0,0,1,15.3-3.6A37.56,37.56,0,0,1,598,3.5a40.43,40.43,0,0,1,9,3.7l-4.9,30.9a20,20,0,0,0-2.4-3.8,18.79,18.79,0,0,0-3.4-3.5,21.86,21.86,0,0,0-4.1-2.6,10.73,10.73,0,0,0-4.7-1,9.19,9.19,0,0,0-5,1.6,6.78,6.78,0,0,0-3.1,4.6v0.8a7.21,7.21,0,0,0,1.9,4.9,11,11,0,0,0,2.1,2.2c0.8,0.7,1.5,1.3,2.2,2a87.33,87.33,0,0,1,6.8,6,26.39,26.39,0,0,1,4.7,6.4,21.94,21.94,0,0,1,2.8,11.5,43.19,43.19,0,0,1-.5,6.2,38.09,38.09,0,0,1-4.5,13.3,42.37,42.37,0,0,1-8.4,10.8,37.69,37.69,0,0,1-11.4,7.3,34.67,34.67,0,0,1-13.6,2.6,48.81,48.81,0,0,1-20-4.2Z" transform="translate(-2.1 -2.1)" style="fill:#354a57"/></svg>